<svg version="1.1" xmlns="http://www.w3.org/2000/svg" xmlns:xlink="http://www.w3.org/1999/xlink" width="100%" height="100%" class="canvas" id="yui_3_17_2_1_1406847768678_384"><defs></defs><g id="symbol" class="logo-entity focused" transform="translate(202.50100708007812, 137.734375) scale(1.6)"><g class="logo-entity-inner" id="yui_3_17_2_1_1406847768678_501"><g data-noun-id="13005" data-attribution="" transform="scale(1.25)"><g id="Your_Icon"><rect x="49.628" y="67.213" fill="#000000" width="20.149" height="9.414" transform="translate(-10.00100326538086,-10.25)"></rect><rect x="49.628" y="48.395" fill="#000000" width="20.149" height="14.111" transform="translate(-10.00100326538086,-10.25)"></rect><rect x="23.611" y="35.309" fill="#000000" width="20.159" height="41.318" transform="translate(-10.00100326538086,-10.25)"></rect><g><path fill="#000000" d="M88.1,24.459H74.792V12.018c0-1.631-1.42-1.768-3.173-1.768c-1.749,0-3.169,0.137-3.169,1.768v12.441    H55.147c-1.758,0-1.915,1.338-1.915,2.959c0,1.641,0.157,2.969,1.915,2.969H68.45v12.441c0,1.621,1.42,1.768,3.169,1.768    c1.753,0,3.173-0.146,3.173-1.768V30.387H88.1c1.744,0,1.9-1.328,1.9-2.969C90,25.797,89.844,24.459,88.1,24.459z" transform="translate(-10.00100326538086,-10.25)"></path></g><path fill="#000000" d="M77.134,57.232v26.582H16.27V28.092h28.725v-6.396l-33.73,0.029c-0.7,0-1.264,0.674-1.264,1.504   l0.049,65.527c0,0.83,0.578,1.494,1.288,1.494l70.772-0.068c0.711,0,1.283-0.674,1.283-1.504l-0.029-31.445H77.134z" transform="translate(-10.00100326538086,-10.25)"></path></g></g></g></g><g id="title" class="logo-entity" transform="translate(27.25, 291.734375) scale(1)"><g class="logo-entity-inner" id="yui_3_17_2_1_1406847768678_495"><text font-size="80px" dominant-baseline="text-before-edge" alignment-baseline="text-before-edge" fill="#000000" font-family="Montserrat" id="yui_3_17_2_1_1406847768678_494">ideTemplate</text></g></g></svg>